<?xml version="1.0" encoding="UTF-8" standalone="no"?>
<!-- Created with Inkscape (http://www.inkscape.org/) -->

<svg
   xmlns:dc="http://purl.org/dc/elements/1.1/"
   xmlns:cc="http://creativecommons.org/ns#"
   xmlns:rdf="http://www.w3.org/1999/02/22-rdf-syntax-ns#"
   xmlns:svg="http://www.w3.org/2000/svg"
   xmlns="http://www.w3.org/2000/svg"
   xmlns:sodipodi="http://sodipodi.sourceforge.net/DTD/sodipodi-0.dtd"
   xmlns:inkscape="http://www.inkscape.org/namespaces/inkscape"
   version="1.1"
   id="svg834"
   xml:space="preserve"
   width="158.252"
   height="29.999962"
   viewBox="0 0 158.252 29.999962"
   sodipodi:docname="Yahoo.svg"
   inkscape:version="0.92.3 (2405546, 2018-03-11)"><metadata
     id="metadata840"><rdf:RDF><cc:Work
         rdf:about=""><dc:format>image/svg+xml</dc:format><dc:type
           rdf:resource="http://purl.org/dc/dcmitype/StillImage" /><dc:title></dc:title></cc:Work></rdf:RDF></metadata><defs
     id="defs838" /><sodipodi:namedview
     pagecolor="#ffffff"
     bordercolor="#666666"
     borderopacity="1"
     objecttolerance="10"
     gridtolerance="10"
     guidetolerance="10"
     inkscape:pageopacity="0"
     inkscape:pageshadow="2"
     inkscape:window-width="1920"
     inkscape:window-height="1033"
     id="namedview836"
     showgrid="false"
     inkscape:zoom="3.2551548"
     inkscape:cx="121.26755"
     inkscape:cy="15.0739"
     inkscape:window-x="0"
     inkscape:window-y="0"
     inkscape:window-maximized="1"
     inkscape:current-layer="g842" /><g
     id="g842"
     inkscape:groupmode="layer"
     inkscape:label="ink_ext_XXXXXX"
     transform="matrix(1.3333333,0,0,-1.3333333,-8.0657775,144.2594)"><g
       id="g844"
       transform="matrix(0.10479309,0,0,0.10479309,-3.1343873,-4.6466435)"><path
         d="m 396.633,1021.92 c -5.539,-0.55 -28.61,-5.72 -36.36,-7.37 -8.3,-2.22 -84.152,-60.816 -89.14,-75.214 -1.106,-4.981 -1.66,-12.641 -1.66,-19.84 l -0.551,-11.625 c 0,-8.308 2.305,-21.683 3.41,-28.879 4.984,-1.109 41.078,-0.144 47.723,-1.242 l -0.821,-14.879 c -6.488,0.461 -52.32,0.356 -78.504,0.356 -13.289,0 -56.015,-1.465 -69.144,-1.067 l 2.48,14.149 c 7.196,0.554 37.004,-1.282 43.559,5.632 3.25,3.43 2.211,7.102 2.211,27.039 v 9.407 c 0,4.429 0,12.738 -1.106,20.492 -2.769,8.301 -69.578,91.731 -86.742,105.011 -4.984,1.66 -36.2107,4.78 -43.9646,6.44 l -0.3867,12.76 c 3.8633,1.93 38.5933,-0.47 72.2933,0.77 22.144,0.82 72.675,0 78.918,-0.74 l -1.602,-11.24 c -6.641,-1.67 -38.644,-2.27 -46.941,-4.49 21.59,-32.11 55.734,-73.452 66.808,-89.515 6.09,8.863 59.614,45.685 61.278,58.425 -8.309,1.66 -35.809,5.62 -40.235,5.62 l -2.636,14.49 c 7.543,1.19 47.179,0 66.878,0 17.016,0 53.352,0 63.68,-0.84 l -9.445,-13.65"
         style="fill:#231f20;fill-opacity:1;fill-rule:evenodd;stroke:none"
         id="path848"
         inkscape:connector-curvature="0" /><path
         d="m 511.051,869.066 c -2.446,0.344 -30.184,0.344 -40.301,0.344 -5.934,0 -36.156,0.176 -41.395,0.176 l 1.575,12.969 c 6.98,0.351 19.968,3.164 25.902,3.863 -3.84,8.727 -16.504,36.422 -19.293,41.66 -7.332,0 -33.687,-0.836 -41.016,-2.23 -1.398,-2.446 -11.402,-12.25 -13.144,-25.512 4.887,-1.051 14.254,-3.059 19.844,-3.762 l -2.059,-13.246 c -5.934,0.344 -29.598,-0.351 -35.18,0 -5.238,0 -29.55,-0.062 -34.086,-0.754 l 4.317,14 c 5.582,0.703 18.445,4.696 23.332,5.735 7.328,10.472 41.269,76.816 44.058,83.097 -4.535,1.043 -12.25,4.692 -17.132,5.395 l -0.676,9.579 c 5.933,-0.34 35.426,-1.232 38.558,-1.079 7.016,0.347 33.067,0.215 38.997,0.562 l -2.2,-9.414 c -5.234,-0.351 -13.75,-2.898 -18.636,-3.945 2.445,-7.328 12.164,-30.953 19.492,-48.402 5.582,-12.563 14.851,-37.176 23.574,-51.493 5.934,-1.046 19.543,-5.039 25.82,-5.39 l 0.352,-3.489 z m -91.274,111.004 -0.347,2.196 c -6.282,-14.661 -16.95,-37.688 -19.039,-43.274 l 34.371,0.016 c -4.192,10.82 -11.844,31.984 -14.985,41.062"
         style="fill:#231f20;fill-opacity:1;fill-rule:evenodd;stroke:none"
         id="path850"
         inkscape:connector-curvature="0" /><path
         d="m 715.461,904.977 c -4.816,0.371 -27.977,0.332 -39.82,0 -9.496,-0.27 -32.051,0.859 -42.793,0.39 l -0.825,13.164 c 3.704,0.371 26.805,1.934 31.247,2.684 1.484,7.031 0.777,17.004 0.777,25.512 l -0.578,15.496 c -11.848,0 -90.153,-4.075 -93.481,-4.446 l -5.722,-0.742 c 0,-21.101 1.109,-27.765 2.593,-35.547 6.293,-1.105 28.879,-2.586 33.692,-3.336 l -0.293,-14.336 c -5.555,0.372 -40.293,0 -51.031,0 -12.957,0 -44.465,0.278 -51.872,-0.093 l 1.004,14.808 c 5.922,0.371 28.321,2.578 33.133,3.317 0.738,9.621 1.113,24.812 1.113,40.73 v 19.617 c 0,6.676 -0.375,25.925 -0.746,32.585 -4.812,0.74 -27.207,2.24 -33.871,2.61 l -1.183,11.21 c 4.441,-0.38 35.359,0.47 51.648,0.47 15.18,0 49.602,-0.3 53.676,0.08 l -1.207,-11.76 c -7.035,-0.37 -30.363,-2.22 -34.438,-2.97 -1.109,-5.54 -2.218,-10.37 -2.218,-28.135 l -0.551,-9.269 c 6.668,0 89.269,0.328 99.555,1.797 v 12.757 c 0,16.29 2.531,33.9 0.675,38.72 -4.07,1.11 -26.14,4.21 -33.179,4.59 l 0.984,11.82 c 4.445,-0.38 25.25,-0.25 40.801,-0.62 16.289,0 39.961,-0.67 44.777,0.07 l -1.094,-9.74 c -4.816,-0.37 -26.289,-5.8 -26.289,-5.8 0,0 -1.457,-10.14 -0.386,-24.73 0.89,-12.126 1.16,-35.962 1.16,-35.962 0.621,-26.535 2.254,-47.984 0.773,-49.094 -1.785,-1.336 16.996,-2.469 22.18,-3.215 l 2.031,-3.527 -0.242,-9.105"
         style="fill:#231f20;fill-opacity:1;fill-rule:evenodd;stroke:none"
         id="path852"
         inkscape:connector-curvature="0" /><path
         d="m 906.438,966.828 c 1.757,-45.215 -39.532,-67.648 -93.168,-67.648 -22.321,0 -49.489,4.246 -72.684,18.172 -18.094,10.855 -21.09,24.937 -21.09,42.554 0,36.414 39.645,66.604 100.332,66.204 23.094,0 45.36,-3.51 63.363,-17.55 16.055,-12.521 18.766,-18.744 21.7,-32.451 z m -29.766,-3.094 c 1.336,37.426 -27.953,47.386 -64.953,44.836 -19.356,-1.32 -58.758,-11.558 -58.758,-44.836 0,-32.886 30.223,-50.699 70.555,-47.183 31.203,2.722 47.589,14.211 51.605,30.176 l 1.551,17.007"
         style="fill:#231f20;fill-opacity:1;fill-rule:evenodd;stroke:none"
         id="path854"
         inkscape:connector-curvature="0" /><path
         d="m 1177.1,939.82 -23.97,2.313 c 2.51,12.121 0.32,105.187 0.13,115.117 l -1.23,19.55 c 6.67,-1.32 5.67,-0.63 33.85,-3.59 17.15,-1.8 19.38,-2.57 25.02,-2.79 l -7.36,-23.19 C 1197.25,1028.7 1179.04,946 1177.1,939.82 Z m -16.55,-49.156 -12.85,1.098 -0.13,27.832 16.26,-2.039 14.57,-0.672 -4.04,-27.238 -13.81,1.019"
         style="fill:#231f20;fill-opacity:1;fill-rule:evenodd;stroke:none"
         id="path856"
         inkscape:connector-curvature="0" /><path
         d="m 1131.29,985.203 c 3.16,-42.344 -45.71,-77.519 -106.94,-77.519 -25.483,0 -47.17,3.089 -72.295,19.714 -20.672,13.672 -30.539,25.512 -33.125,48.844 -4.575,41.308 45.265,76.028 114.54,75.588 26.37,0 51.79,-4.02 72.34,-20.05 18.33,-14.3 21.54,-27.85 24.89,-43.51 z m -31.95,-6.004 c 2.55,40.661 -36.62,55.481 -78.86,52.571 -22.097,-1.51 -63.402,-14.58 -63.402,-52.571 0,-37.543 34.563,-56.469 80.602,-52.457 35.63,3.102 50.45,16.504 58.57,34.676 0,0 2.32,5.41 3.09,17.781"
         style="fill:#231f20;fill-opacity:1;fill-rule:evenodd;stroke:none"
         id="path858"
         inkscape:connector-curvature="0" /><path
         d="m 1206.66,916.637 c 7.38,0 13.58,-5.836 13.58,-13.582 0,-7.739 -6.2,-13.586 -13.58,-13.586 -7.41,0 -13.59,5.847 -13.59,13.586 0,7.746 6.18,13.582 13.59,13.582 z m 0,-25.196 c 6.2,0 11.18,5.047 11.18,11.614 0,6.574 -4.98,11.609 -11.18,11.609 -6.25,0 -11.18,-5.035 -11.18,-11.609 0,-6.567 4.93,-11.614 11.18,-11.614 z m -5.19,19.575 h 5.99 c 3.76,0 5.56,-1.496 5.56,-4.532 0,-2.882 -1.83,-4.089 -4.21,-4.339 l 4.57,-7.008 h -2.59 l -4.31,6.828 h -2.6 v -6.828 h -2.41 z m 2.41,-7.086 h 2.49 c 2.15,0 4.24,0.113 4.24,2.668 0,2.191 -1.9,2.445 -3.55,2.445 h -3.18 v -5.113"
         style="fill:#231f20;fill-opacity:1;fill-rule:evenodd;stroke:none"
         id="path860"
         inkscape:connector-curvature="0" /></g></g></svg>